#tb 0: 1/25
#media_type 0: video
#codec_id 0: rawvideo
#dimensions 0: 100x70
#sar 0: 0/1
0,          0,          0,        1,    28000, 0x2023ba6e
0,          2,          2,        1,    28000, 0x4292b778
0,          4,          4,        1,    28000, 0x1c972ef1
0,          6,          6,        1,    28000, 0xa98d8d04
0,          8,          8,        1,    28000, 0xd323b6af
0,         10,         10,        1,    28000, 0x508aba99
0,         12,         12,        1,    28000, 0x5c672dda
0,         14,         14,        1,    28000, 0xc8961ebb
0,         16,         16,        1,    28000, 0x82460e1b
0,         41,         41,        1,    28000, 0x3debbfc9
0,         43,         43,        1,    28000, 0x427ab31f
0,         45,         45,        1,    28000, 0x6bbdec2e
0,         47,         47,        1,    28000, 0x5690b56b
0,         49,         49,        1,    28000, 0xb62963f3
0,         51,         51,        1,    28000, 0x68dd37b2
0,         53,         53,        1,    28000, 0x465c47d2
0,         55,         55,        1,    28000, 0xa92033df
